<svg xmlns="http://www.w3.org/2000/svg" viewBox="0 0 1024 1024" role="img" aria-labelledby="title desc">
  <title id="title">CourseNest</title>
  <desc id="desc">CourseNest app icon with a graduation cap, letter C, and open book.</desc>
  <defs>
    <linearGradient id="bg" x1="90" x2="934" y1="830" y2="194" gradientUnits="userSpaceOnUse">
      <stop offset="0" stop-color="#078df7"/>
      <stop offset=".46" stop-color="#284fe8"/>
      <stop offset="1" stop-color="#8f22f4"/>
    </linearGradient>
    <linearGradient id="paper" x1="270" x2="773" y1="232" y2="770" gradientUnits="userSpaceOnUse">
      <stop offset="0" stop-color="#fff"/>
      <stop offset=".68" stop-color="#fbfbff"/>
      <stop offset="1" stop-color="#d9d0ff"/>
    </linearGradient>
    <filter id="softShadow" x="-20%" y="-20%" width="140%" height="140%" color-interpolation-filters="sRGB">
      <feDropShadow dx="0" dy="14" stdDeviation="16" flood-color="#17206f" flood-opacity=".32"/>
    </filter>
    <filter id="iconDepth" x="-18%" y="-18%" width="136%" height="136%" color-interpolation-filters="sRGB">
      <feDropShadow dx="0" dy="7" stdDeviation="7" flood-color="#182176" flood-opacity=".34"/>
    </filter>
  </defs>

  <rect width="920" height="920" x="52" y="52" fill="url(#bg)" rx="184" filter="url(#softShadow)"/>

  <g fill="url(#paper)" filter="url(#iconDepth)">
    <path d="M328 580c74 18 137 62 178 124l-10-2c-71-39-154-62-247-70a12 12 0 0 1-11-13l14-99a11 11 0 0 1 14-9c20 6 41 14 62 24v45Zm370-45c21-10 42-18 62-24a11 11 0 0 1 14 9l14 99a12 12 0 0 1-11 13c-93 8-176 31-247 70l-10 2c41-62 104-106 178-124v-45Z"/>
    <path d="M218 542h23l-24 154h249c18 0 34 10 42 27l8 16h49l8-16c8-17 24-27 42-27h249l-24-154h23c11 0 20 8 22 18l29 172c2 12-8 23-20 23H608c-10 0-20 6-24 16l-6 13a20 20 0 0 1-18 11h-90a20 20 0 0 1-18-11l-6-13c-4-10-14-16-24-16H136c-12 0-22-11-20-23l29-172c2-10 11-18 22-18Z"/>
    <path d="M640 251 781 332c13 7 13 26 0 33l-54 31a18 18 0 0 1-18 0l-80-46a221 221 0 1 0 6 295c8-11 24-14 35-6l62 45c11 8 13 24 5 34a321 321 0 1 1-8-439l-105-60a34 34 0 0 0-34 0L316 377a18 18 0 0 1-18 0l-54-31c-13-7-13-26 0-33l282-162a34 34 0 0 1 34 0Z"/>
    <path d="M800 377h12v88a27 27 0 0 1 6 45l17 62a9 9 0 0 1-9 12h-40a9 9 0 0 1-9-12l17-62a27 27 0 0 1 6-45v-88Z"/>
  </g>

  <text x="512" y="840" fill="#fff" font-family="Inter, ui-sans-serif, system-ui, -apple-system, BlinkMacSystemFont, 'Segoe UI', sans-serif" font-size="98" font-weight="800" letter-spacing="0" text-anchor="middle">CourseNest</text>
</svg>
